<svg xmlns="http://www.w3.org/2000/svg" viewBox="0 0 900 675" role="img" aria-label="Breastmilk storage bags">
  <defs>
    <linearGradient id="bg" x1="0" x2="1" y1="0" y2="1">
      <stop offset="0" stop-color="#e8f6ff"/>
      <stop offset="1" stop-color="#ffeaf1"/>
    </linearGradient>
    <linearGradient id="bag" x1="0" x2="1">
      <stop offset="0" stop-color="#ffffff"/>
      <stop offset="1" stop-color="#dff3ff"/>
    </linearGradient>
  </defs>
  <rect width="900" height="675" rx="44" fill="url(#bg)"/>
  <circle cx="725" cy="130" r="88" fill="#fff4cf" opacity=".75"/>
  <circle cx="165" cy="535" r="130" fill="#e9fbf4" opacity=".85"/>
  <g transform="translate(200 105)">
    <rect x="42" y="28" width="275" height="450" rx="34" fill="url(#bag)" stroke="#55aee2" stroke-width="10"/>
    <rect x="70" y="70" width="220" height="44" rx="16" fill="#55aee2" opacity=".22"/>
    <path d="M95 158h170M95 206h170M95 254h120" stroke="#1f7fb8" stroke-width="12" stroke-linecap="round" opacity=".55"/>
    <path d="M180 315c42-50 88-20 88 25 0 54-88 93-88 93s-88-39-88-93c0-45 46-75 88-25Z" fill="#ffeaf1" stroke="#55aee2" stroke-width="8"/>
  </g>
  <g transform="translate(410 145) rotate(5)">
    <rect x="42" y="28" width="275" height="450" rx="34" fill="#fff" stroke="#1f7fb8" stroke-width="10"/>
    <rect x="70" y="70" width="220" height="44" rx="16" fill="#55aee2" opacity=".28"/>
    <path d="M95 158h170M95 206h170M95 254h120" stroke="#1f7fb8" stroke-width="12" stroke-linecap="round" opacity=".55"/>
    <path d="M180 315c42-50 88-20 88 25 0 54-88 93-88 93s-88-39-88-93c0-45 46-75 88-25Z" fill="#e8f6ff" stroke="#55aee2" stroke-width="8"/>
  </g>
  <text x="450" y="620" text-anchor="middle" font-family="Arial, sans-serif" font-size="42" font-weight="800" fill="#172033">Breastmilk Storage Bags</text>
</svg>
