<svg xmlns="http://www.w3.org/2000/svg" viewBox="0 0 900 680" role="img" aria-label="Steel Bottles by Me &amp; Mommy">
  <defs>
    <linearGradient id="g" x1="0" y1="0" x2="1" y2="1">
      <stop offset="0" stop-color="#e8f6ff"/>
      <stop offset="0.55" stop-color="#ffffff"/>
      <stop offset="1" stop-color="#ffeaf1"/>
    </linearGradient>
    <filter id="s" x="-20%" y="-20%" width="140%" height="140%"><feDropShadow dx="0" dy="18" stdDeviation="18" flood-color="#1f7fb8" flood-opacity=".18"/></filter>
  </defs>
  <rect width="900" height="680" fill="url(#g)"/>
  <circle cx="168" cy="126" r="86" fill="#55aee2" opacity=".22"/>
  <circle cx="742" cy="542" r="118" fill="#f7a8bd" opacity=".24"/>
  <rect x="210" y="168" width="480" height="330" rx="42" fill="#fff" filter="url(#s)"/>
  <path d="M302 354c58-94 138-132 238-116 44 8 78 28 102 58-36-10-72-6-108 12-48 24-88 62-134 76-34 10-66 2-98-30z" fill="#55aee2" opacity=".86"/>
  <circle cx="358" cy="262" r="44" fill="#f7a8bd" opacity=".9"/>
  <text x="450" y="548" text-anchor="middle" font-family="Arial, Helvetica, sans-serif" font-size="42" font-weight="800" fill="#172033">Steel Bottles</text>
  <text x="450" y="598" text-anchor="middle" font-family="Arial, Helvetica, sans-serif" font-size="28" font-weight="700" fill="#55aee2">Me &amp; Mommy</text>
</svg>
